<?xml version="1.0" encoding="utf-8"?>
<!-- Svg Vector Icons : http://www.onlinewebfonts.com/icon -->
<!DOCTYPE svg PUBLIC "-//W3C//DTD SVG 1.1//EN" "http://www.w3.org/Graphics/SVG/1.1/DTD/svg11.dtd">
<svg version="1.1" xmlns="http://www.w3.org/2000/svg" xmlns:xlink="http://www.w3.org/1999/xlink" x="0px" y="0px" viewBox="0 0 256 256" enable-background="new 0 0 256 256" xml:space="preserve">
<metadata> Svg Vector Icons : http://www.onlinewebfonts.com/icon </metadata>
<g><g><path fill="#FFBC5E" d="M172.5,241.4c8.4,0,14.8-6.8,14.8-15.9V26.4c0-9.1-6.4-15.9-14.8-15.9h-130c-8.8,0-15.6,7-15.6,15.7V30h-13c-2.2,0-3.9,1.8-3.9,3.9c0,2.2,1.8,3.9,3.9,3.9h13v23.5H15.1c-2.2,0-3.9,1.8-3.9,3.9c0,2.2,1.8,3.9,3.9,3.9h11.7v23.5H15.1c-2.2,0-3.9,1.8-3.9,3.9c0,2.2,1.8,3.9,3.9,3.9h11.7v19.6H15.1c-2.2,0-3.9,1.8-3.9,3.9c0,2.2,1.8,3.9,3.9,3.9h11.7v23.5H15.1c-2.2,0-3.9,1.8-3.9,3.9c0,2.2,1.8,3.9,3.9,3.9h11.7v23.5H15.1c-2.2,0-3.9,1.8-3.9,3.9c0,2.2,1.8,3.9,3.9,3.9h11.7V214H15.1c-2.2,0-3.9,1.8-3.9,3.9c0,2.2,1.8,3.9,3.9,3.9h11.7v3.7c0,8.8,6.9,15.8,15.6,15.8H172.5L172.5,241.4z M179.5,26.4v199.1c0,3.9-2.2,8.1-7,8.1h-24.3v-215c0-0.1,0-0.2,0-0.2h24.3C177.3,18.3,179.5,22.4,179.5,26.4 M34.7,225.5v-3.7h11.2c2.2,0,3.9-1.8,3.9-3.9c0-2.2-1.8-3.9-3.9-3.9H34.7v-23.5h11.2c2.2,0,3.9-1.8,3.9-3.9c0-2.2-1.8-3.9-3.9-3.9H34.7v-23.5h11.2c2.2,0,3.9-1.8,3.9-3.9c0-2.2-1.8-3.9-3.9-3.9H34.7v-23.5h11.2c2.2,0,3.9-1.8,3.9-3.9c0-2.2-1.8-3.9-3.9-3.9H34.7v-19.6h11.2c2.2,0,3.9-1.8,3.9-3.9c0-2.2-1.8-3.9-3.9-3.9H34.7V69.2h11.2c2.2,0,3.9-1.8,3.9-3.9c0-2.2-1.8-3.9-3.9-3.9H34.7V37.9h10c2.2,0,3.9-1.8,3.9-3.9c0-2.2-1.8-3.9-3.9-3.9h-10v-3.9c0-4.5,3.4-7.9,7.8-7.9h98c0,0-0.2,0.1-0.2,0.2v215H42.5C38.1,233.5,34.7,230,34.7,225.5"/><path fill="#FFBC5E" d="M206.9,29.5v172.8c0,5.8,1.6,11.5,4.6,16.4l16.3,26.8l14.9-29.7c2.2-4.4,3.3-9.2,3.3-14.1V10.5h-20.2C215.4,10.5,206.9,19,206.9,29.5 M235.7,212.3l-8.6,17.1l-9-14.7c-2.3-3.7-3.5-8-3.5-12.3V57.4h23.5v144.2C238.2,205.3,237.3,209,235.7,212.3 M238.2,49.6h-23.5V29.5c0-6.1,5-11.1,11.2-11.1h12.3V49.6z"/></g></g>
</svg>