<?xml version="1.0" encoding="utf-8"?>
<!-- Svg Vector Icons : http://www.onlinewebfonts.com/icon -->
<!DOCTYPE svg PUBLIC "-//W3C//DTD SVG 1.1//EN" "http://www.w3.org/Graphics/SVG/1.1/DTD/svg11.dtd">
<svg version="1.1" xmlns="http://www.w3.org/2000/svg" xmlns:xlink="http://www.w3.org/1999/xlink" x="0px" y="0px" viewBox="0 0 256 256" enable-background="new 0 0 256 256" xml:space="preserve">
<metadata> Svg Vector Icons : http://www.onlinewebfonts.com/icon </metadata>
<g><g><g><path fill="#000000" d="M10,128v84.7h118h118V128V43.3H128H10V128z M42.8,97.1v44.3h5.2h5.2v30.9v30.9H36.2H19V128V52.8h11.9h11.9L42.8,97.1L42.8,97.1z M92.3,97.1v44.3h5h5v30.9v30.9H79.5H56.6v-30.9v-30.9h5.2h5.2V97.1V52.8h12.6h12.6L92.3,97.1L92.3,97.1z M140.4,97.1v44.3h5.2h5.2v30.9v30.9h-22.4h-22.4v-30.9v-30.9h5h5V97.1V52.8h12.1h12.1L140.4,97.1L140.4,97.1z M188.9,97.1v44.3h5h5v30.9v30.9h-22.4h-22.4v-30.9v-30.9h5.2h5.2V97.1V52.8h12.1h12.1V97.1z M237,128v75.2h-17.1h-17.1v-30.9v-30.9h5h5V97.1V52.8h12.1H237V128z"/></g></g></g>
</svg>